<svg width="180" height="180" viewBox="0 0 180 180" fill="none" xmlns="http://www.w3.org/2000/svg">
<g id="account_circle">
<path id="Vector" d="M90 15C48.6 15 15 48.6 15 90C15 131.4 48.6 165 90 165C131.4 165 165 131.4 165 90C165 48.6 131.4 15 90 15ZM90 45C104.475 45 116.25 56.775 116.25 71.25C116.25 85.725 104.475 97.5 90 97.5C75.525 97.5 63.75 85.725 63.75 71.25C63.75 56.775 75.525 45 90 45ZM90 150C74.775 150 56.775 143.85 43.95 128.4C56.625 118.5 72.6 112.5 90 112.5C107.4 112.5 123.375 118.5 136.05 128.4C123.225 143.85 105.225 150 90 150Z" fill="black"/>
</g>
</svg>
