<svg width="25" height="24" viewBox="0 0 25 24" fill="none" xmlns="http://www.w3.org/2000/svg">
<g id="qr_code">
<path id="Vector" d="M15.5 21H13.5V19H15.5V21ZM13.5 14H11.5V19H13.5V14ZM21.5 12H19.5V16H21.5V12ZM19.5 10H17.5V12H19.5V10ZM7.5 12H5.5V14H7.5V12ZM5.5 10H3.5V12H5.5V10ZM12.5 5H14.5V3H12.5V5ZM5 4.5V7.5H8V4.5H5ZM9.5 9H3.5V3H9.5V9ZM5 16.5V19.5H8V16.5H5ZM9.5 21H3.5V15H9.5V21ZM17 4.5V7.5H20V4.5H17ZM21.5 9H15.5V3H21.5V9ZM19.5 19V16H15.5V18H17.5V21H21.5V19H19.5ZM17.5 12H13.5V14H17.5V12ZM13.5 10H7.5V12H9.5V14H11.5V12H13.5V10ZM14.5 9V7H12.5V5H10.5V9H14.5ZM7.25 5.25H5.75V6.75H7.25V5.25ZM7.25 17.25H5.75V18.75H7.25V17.25ZM19.25 5.25H17.75V6.75H19.25V5.25Z" fill="black"/>
</g>
</svg>
